<svg width="561" height="80" viewBox="0 0 561 80" fill="none" xmlns="http://www.w3.org/2000/svg">
<g clip-path="url(#clip0_1_2)">
<path d="M64.4292 17.3403L40.2689 2.84835C38.7704 1.9491 37.0848 1.5 35.399 1.5C33.7152 1.5 32.0295 1.9491 30.5312 2.84835L6.37066 17.3403C3.51886 19.0512 1.77466 22.1328 1.77466 25.4579V54.3422C1.77466 57.6674 3.51886 60.7488 6.37066 62.4597L30.531 76.9517C32.0294 77.8499 33.7152 78.3 35.3988 78.3C37.0847 78.3 38.7702 77.8499 40.2687 76.9517L64.4291 62.4597C67.281 60.7488 69.0251 57.6672 69.0251 54.3422V25.4579C69.0252 22.1328 67.2812 19.0512 64.4292 17.3403ZM34.5893 75.41C33.6851 75.2982 32.7989 75.0032 31.9911 74.5178L7.83091 60.0258C5.83501 58.8273 4.61251 56.6703 4.61251 54.3422V25.4579C4.61251 24.5546 4.79881 23.6785 5.14021 22.8729L34.5894 40.5369L34.5893 75.41ZM5.94976 21.4671C6.45526 20.7975 7.08871 20.2194 7.83076 19.7744L31.9911 5.2824C33.0405 4.653 34.2186 4.33875 35.3988 4.33875C36.5811 4.33875 37.7594 4.653 38.8086 5.2824L62.969 19.7744C63.7103 20.2194 64.3446 20.7975 64.85 21.4671L35.399 39.1322L5.94976 21.4671ZM66.1874 54.3422C66.1874 56.6703 64.9649 58.8273 62.969 60.0258L38.8086 74.5178C37.9991 75.0032 37.1148 75.2982 36.2106 75.41V40.5369L65.6598 22.8729C66.0021 23.6784 66.1875 24.5546 66.1875 25.4579V54.3422H66.1874Z" fill="#FF57FF" stroke="#AA33FF" stroke-width="2.0736"/>
<path d="M52.194 18.6747C50.5727 17.4732 47.9001 17.4441 46.2264 18.6072C44.5527 19.7703 44.5104 21.6886 46.1318 22.8891C47.7551 24.0894 50.4257 24.1195 52.0994 22.9566C53.7731 21.7923 53.8154 19.876 52.194 18.6747Z" fill="#FF57FF" stroke="#AA33FF" stroke-width="2.0736"/>
<path d="M24.5514 18.3433C22.929 17.1429 20.2575 17.1117 18.5838 18.2758C16.9101 19.4389 16.8678 21.3562 18.4891 22.5565C20.1103 23.7579 22.783 23.7871 24.4567 22.6249C26.1304 21.46 26.1726 19.5436 24.5514 18.3433Z" fill="#FF57FF" stroke="#AA33FF" stroke-width="2.0736"/>
<path d="M10.3928 38.7454C12.0665 39.6579 13.4219 39.0396 13.4219 37.3669C13.4219 35.6932 12.0665 33.5976 10.3928 32.6854C8.71906 31.773 7.36261 32.3904 7.36261 34.0639C7.36261 35.7366 8.71906 37.8331 10.3928 38.7454Z" fill="#FF57FF" stroke="#AA33FF" stroke-width="2.0736"/>
<path d="M27.3085 47.9656C28.9831 48.8779 30.3396 48.2607 30.3396 46.588C30.3396 44.9145 28.9831 42.8178 27.3085 41.9055C25.6369 40.9941 24.2794 41.6113 24.2794 43.2852C24.2794 44.9578 25.6369 47.0533 27.3085 47.9656Z" fill="#FF57FF" stroke="#AA33FF" stroke-width="2.0736"/>
<path d="M10.3928 55.6623C12.0665 56.5748 13.4219 55.9573 13.4219 54.2838C13.4219 52.6101 12.0665 50.5145 10.3928 49.6023C8.71906 48.6899 7.36261 49.3071 7.36261 50.9808C7.36261 52.6544 8.71906 54.75 10.3928 55.6623Z" fill="#FF57FF" stroke="#AA33FF" stroke-width="2.0736"/>
<path d="M27.3085 64.8825C28.9831 65.7948 30.3396 65.1776 30.3396 63.5039C30.3396 61.8312 28.9831 59.7346 27.3085 58.8223C25.6369 57.9109 24.2794 58.5282 24.2794 60.2009C24.2794 61.8746 25.6369 63.9702 27.3085 64.8825Z" fill="#FF57FF" stroke="#AA33FF" stroke-width="2.0736"/>
<path d="M18.8506 51.8145C20.5243 52.7259 21.8808 52.1085 21.8808 50.4348C21.8808 48.7621 20.5243 46.6656 18.8506 45.7542C17.1781 44.8419 15.8206 45.4591 15.8206 47.1318C15.8206 48.8055 17.1781 50.9011 18.8506 51.8145Z" fill="#FF57FF" stroke="#AA33FF" stroke-width="2.0736"/>
<path d="M59.1807 32.1839C57.507 33.0962 56.1516 35.1917 56.1516 36.8654C56.1516 38.5391 57.507 39.1563 59.1807 38.244C60.8543 37.3316 62.2118 35.2361 62.2118 33.5624C62.2118 31.8887 60.8543 31.2714 59.1807 32.1839Z" fill="#FF57FF" stroke="#AA33FF" stroke-width="2.0736"/>
<path d="M59.1807 42.0495C57.507 42.963 56.1516 45.0574 56.1516 46.7311C56.1516 48.4048 57.507 49.0221 59.1807 48.1108C60.8543 47.1984 62.2118 45.1018 62.2118 43.4292C62.2118 41.7555 60.8543 41.1372 59.1807 42.0495Z" fill="#FF57FF" stroke="#AA33FF" stroke-width="2.0736"/>
<path d="M44.454 46.8963C46.1277 45.984 47.4852 43.8884 47.4852 42.2147C47.4852 40.542 46.1277 39.9248 44.454 40.8362C42.7803 41.7485 41.4249 43.845 41.4249 45.5176C41.4249 47.1913 42.7804 47.8086 44.454 46.8963Z" fill="#FF57FF" stroke="#AA33FF" stroke-width="2.0736"/>
<path d="M59.1807 51.9162C57.507 52.8285 56.1516 54.9241 56.1516 56.5968C56.1516 58.2705 57.507 58.8877 59.1807 57.9765C60.8543 57.064 62.2118 54.9675 62.2118 53.2938C62.2118 51.6211 60.8543 51.0039 59.1807 51.9162Z" fill="#FF57FF" stroke="#AA33FF" stroke-width="2.0736"/>
<path d="M44.454 60.5685C42.7803 61.4808 41.4249 63.5764 41.4249 65.2501C41.4249 66.9226 42.7804 67.54 44.454 66.6277C46.1277 65.7163 47.4852 63.6198 47.4852 61.9471C47.4852 60.2734 46.1277 59.6562 44.454 60.5685Z" fill="#FF57FF" stroke="#AA33FF" stroke-width="2.0736"/>
<path d="M44.6354 50.7027C42.9617 51.6141 41.6063 53.7107 41.6063 55.3833C41.6063 57.057 42.9617 57.6743 44.6354 56.762C46.3091 55.8497 47.6666 53.754 47.6666 52.0805C47.6664 50.4078 46.3091 49.7904 44.6354 50.7027Z" fill="#FF57FF" stroke="#AA33FF" stroke-width="2.0736"/>
<path d="M89.22 59.4C87.74 59.4 87 58.66 87 57.18V21.6C87 20.12 87.74 19.38 89.22 19.38C90.196 19.38 91.008 19.86 91.656 20.82L106.08 42.624L105.12 42.78L119.616 20.82C120.216 19.86 121.104 19.38 122.28 19.38C123.504 19.38 124.116 20.12 124.116 21.6V57.18C124.116 58.66 123.384 59.4 121.92 59.4C120.44 59.4 119.7 58.66 119.7 57.18V26.004L121.056 26.46L108.024 45.876C107.392 46.812 106.504 47.28 105.36 47.28C104.52 47.28 103.78 46.812 103.14 45.876L90.12 26.46L91.416 26.856V57.18C91.416 58.66 90.684 59.4 89.22 59.4ZM138.396 59.4C136.916 59.4 136.176 58.66 136.176 57.18V21.6C136.176 20.12 136.916 19.38 138.396 19.38H160.236C161.716 19.38 162.456 20.12 162.456 21.6C162.456 23.056 161.716 23.784 160.236 23.784H140.58V36.984H153.156C154.636 36.984 155.376 37.716 155.376 39.18C155.376 40.66 154.636 41.4 153.156 41.4H140.58V54.996H160.236C161.716 54.996 162.456 55.724 162.456 57.18C162.456 58.66 161.716 59.4 160.236 59.4H138.396ZM183.456 59.4C182.736 59.4 182.184 59.216 181.8 58.848C181.424 58.48 181.236 57.932 181.236 57.204V23.82H169.236C168.516 23.82 167.964 23.636 167.58 23.268C167.204 22.892 167.016 22.344 167.016 21.624C167.016 20.912 167.204 20.364 167.58 19.98C167.964 19.596 168.516 19.404 169.236 19.404H197.676C198.396 19.404 198.94 19.596 199.308 19.98C199.676 20.364 199.86 20.912 199.86 21.624C199.86 22.344 199.676 22.892 199.308 23.268C198.94 23.636 198.396 23.82 197.676 23.82H185.64V57.204C185.64 57.884 185.452 58.42 185.076 58.812C184.692 59.204 184.152 59.4 183.456 59.4ZM200.34 59.196C198.94 58.636 198.52 57.664 199.08 56.28L213.576 21.12C214.072 19.96 214.892 19.38 216.036 19.38H216.18C217.324 19.444 218.104 20.024 218.52 21.12L233.16 56.28C233.72 57.664 233.32 58.636 231.96 59.196C230.584 59.732 229.624 59.332 229.08 57.996L225.576 49.596H206.58L203.196 57.996C202.636 59.348 201.684 59.748 200.34 59.196ZM208.32 45.18H223.776L215.94 26.364L208.32 45.18ZM252.864 59.4C248.368 59.4 245.056 58.336 242.928 56.208C240.8 54.072 239.736 50.756 239.736 46.26V32.52C239.736 27.976 240.796 24.644 242.916 22.524C245.036 20.412 248.336 19.364 252.816 19.38H260.076C263.796 19.38 266.616 20.156 268.536 21.708C270.456 23.252 271.556 25.696 271.836 29.04C271.932 29.784 271.792 30.348 271.416 30.732C271.032 31.124 270.472 31.32 269.736 31.32C268.392 31.32 267.62 30.58 267.42 29.1C267.244 27.06 266.596 25.664 265.476 24.912C264.356 24.16 262.556 23.784 260.076 23.784H252.816C250.632 23.784 248.912 24.052 247.656 24.588C246.392 25.116 245.492 26.016 244.956 27.288C244.412 28.552 244.14 30.296 244.14 32.52V46.26C244.14 48.46 244.412 50.196 244.956 51.468C245.492 52.74 246.396 53.644 247.668 54.18C248.932 54.724 250.664 54.996 252.864 54.996H260.076C261.996 54.996 263.5 54.772 264.588 54.324C265.676 53.892 266.444 53.128 266.892 52.032C267.348 50.944 267.576 49.42 267.576 47.46V44.34L262.26 44.28C260.804 44.28 260.076 43.54 260.076 42.06C260.076 40.596 260.804 39.864 262.26 39.864L269.796 39.924C271.252 39.924 271.98 40.656 271.98 42.12V47.46C271.98 51.62 271.024 54.652 269.112 56.556C267.208 58.452 264.196 59.4 260.076 59.4H252.864ZM279.96 59.196C278.56 58.636 278.14 57.664 278.7 56.28L293.196 21.12C293.692 19.96 294.512 19.38 295.656 19.38H295.8C296.944 19.444 297.724 20.024 298.14 21.12L312.78 56.28C313.34 57.664 312.94 58.636 311.58 59.196C310.204 59.732 309.244 59.332 308.7 57.996L305.196 49.596H286.2L282.816 57.996C282.256 59.348 281.304 59.748 279.96 59.196ZM287.94 45.18H303.396L295.56 26.364L287.94 45.18ZM323.4 59.4C321.92 59.4 321.18 58.66 321.18 57.18V21.6C321.18 20.12 321.92 19.38 323.4 19.38C324.376 19.38 325.188 19.86 325.836 20.82L340.26 42.624L339.3 42.78L353.784 20.82C354.384 19.86 355.276 19.38 356.46 19.38C357.676 19.38 358.284 20.12 358.284 21.6V57.18C358.284 58.66 357.556 59.4 356.1 59.4C354.62 59.4 353.88 58.66 353.88 57.18V26.004L355.236 26.46L342.216 45.876C341.576 46.812 340.684 47.28 339.54 47.28C338.7 47.28 337.96 46.812 337.32 45.876L324.3 26.46L325.584 26.856V57.18C325.584 58.66 324.856 59.4 323.4 59.4ZM372.564 59.4C371.092 59.4 370.356 58.66 370.356 57.18V21.6C370.356 20.12 371.092 19.38 372.564 19.38H394.416C395.888 19.38 396.624 20.12 396.624 21.6C396.624 23.056 395.888 23.784 394.416 23.784H374.76V36.984H387.336C388.816 36.984 389.556 37.716 389.556 39.18C389.556 40.66 388.816 41.4 387.336 41.4H374.76V54.996H394.416C395.888 54.996 396.624 55.724 396.624 57.18C396.624 58.66 395.888 59.4 394.416 59.4H372.564ZM445.68 59.4H422.964C421.468 59.4 420.72 58.66 420.72 57.18C420.72 54.644 421.104 52.468 421.872 50.652C422.64 48.844 423.668 47.296 424.956 46.008C426.228 44.72 427.652 43.584 429.228 42.6C430.796 41.616 432.372 40.668 433.956 39.756C436.092 38.532 437.884 37.464 439.332 36.552C440.788 35.64 441.88 34.7 442.608 33.732C443.336 32.764 443.7 31.58 443.7 30.18C443.7 27.716 443.244 26.036 442.332 25.14C441.42 24.236 439.748 23.784 437.316 23.784H430.884C428.868 23.784 427.384 24.084 426.432 24.684C425.488 25.284 424.904 26.376 424.68 27.96C424.56 28.656 424.324 29.192 423.972 29.568C423.628 29.936 423.092 30.12 422.364 30.12C421.628 30.12 421.068 29.92 420.684 29.52C420.308 29.12 420.152 28.548 420.216 27.804C420.576 24.972 421.628 22.86 423.372 21.468C425.124 20.076 427.628 19.38 430.884 19.38H437.316C440.988 19.38 443.704 20.26 445.464 22.02C447.232 23.78 448.116 26.5 448.116 30.18C448.116 32.46 447.56 34.376 446.448 35.928C445.336 37.48 443.864 38.844 442.032 40.02C440.2 41.204 438.228 42.396 436.116 43.596C434.188 44.692 432.468 45.74 430.956 46.74C429.428 47.74 428.172 48.88 427.188 50.16C426.196 51.44 425.56 53.052 425.28 54.996H445.68C447.16 54.996 447.9 55.724 447.9 57.18C447.9 58.66 447.16 59.4 445.68 59.4ZM469.584 59.4C465.088 59.4 461.776 58.336 459.648 56.208C457.52 54.072 456.456 50.756 456.456 46.26V32.46C456.456 27.94 457.52 24.624 459.648 22.512C461.776 20.408 465.088 19.372 469.584 19.404H473.184C477.688 19.404 481 20.46 483.12 22.572C485.24 24.684 486.3 28 486.3 32.52V46.26C486.3 50.756 485.24 54.072 483.12 56.208C481 58.336 477.688 59.4 473.184 59.4H469.584ZM469.584 54.996H473.184C475.368 54.996 477.096 54.72 478.368 54.168C479.632 53.616 480.536 52.704 481.08 51.432C481.616 50.16 481.884 48.436 481.884 46.26V32.52C481.884 30.344 481.616 28.62 481.08 27.348C480.536 26.076 479.632 25.168 478.368 24.624C477.096 24.088 475.368 23.82 473.184 23.82H469.584C467.408 23.78 465.684 24.024 464.412 24.552C463.148 25.088 462.24 25.988 461.688 27.252C461.136 28.524 460.86 30.26 460.86 32.46V46.26C460.86 48.436 461.128 50.16 461.664 51.432C462.208 52.704 463.116 53.616 464.388 54.168C465.652 54.72 467.384 54.996 469.584 54.996ZM470.724 42.156C469.268 42.156 468.54 41.424 468.54 39.96V38.58C468.54 37.164 469.268 36.456 470.724 36.456H472.056C473.456 36.456 474.156 37.164 474.156 38.58V39.96C474.156 41.424 473.456 42.156 472.056 42.156H470.724ZM519.6 59.4H496.884C495.388 59.4 494.64 58.66 494.64 57.18C494.64 54.644 495.024 52.468 495.792 50.652C496.568 48.844 497.596 47.296 498.876 46.008C500.148 44.72 501.572 43.584 503.148 42.6C504.716 41.616 506.292 40.668 507.876 39.756C510.012 38.532 511.804 37.464 513.252 36.552C514.708 35.64 515.8 34.7 516.528 33.732C517.256 32.764 517.62 31.58 517.62 30.18C517.62 27.716 517.164 26.036 516.252 25.14C515.34 24.236 513.668 23.784 511.236 23.784H504.816C502.792 23.784 501.304 24.084 500.352 24.684C499.408 25.284 498.824 26.376 498.6 27.96C498.48 28.656 498.244 29.192 497.892 29.568C497.548 29.936 497.012 30.12 496.284 30.12C495.548 30.12 494.992 29.92 494.616 29.52C494.232 29.12 494.072 28.548 494.136 27.804C494.496 24.972 495.548 22.86 497.292 21.468C499.044 20.076 501.552 19.38 504.816 19.38H511.236C514.916 19.38 517.632 20.26 519.384 22.02C521.152 23.78 522.036 26.5 522.036 30.18C522.036 32.46 521.48 34.376 520.368 35.928C519.256 37.48 517.784 38.844 515.952 40.02C514.128 41.204 512.156 42.396 510.036 43.596C508.116 44.692 506.396 45.74 504.876 46.74C503.348 47.74 502.092 48.88 501.108 50.16C500.116 51.44 499.48 53.052 499.2 54.996H519.6C521.08 54.996 521.82 55.724 521.82 57.18C521.82 58.66 521.08 59.4 519.6 59.4ZM541.656 59.4C538.192 59.4 535.532 58.664 533.676 57.192C531.812 55.728 530.712 53.456 530.376 50.376C530.312 49.656 530.472 49.088 530.856 48.672C531.232 48.264 531.792 48.06 532.536 48.06C533.896 48.06 534.644 48.78 534.78 50.22C535.044 52.004 535.688 53.244 536.712 53.94C537.744 54.644 539.392 54.996 541.656 54.996H547.884C550.572 54.996 552.408 54.488 553.392 53.472C554.384 52.464 554.88 50.64 554.88 48V43.86C554.88 41.196 554.38 39.372 553.38 38.388C552.38 37.396 550.548 36.9 547.884 36.9H543.456C540.232 36.9 537.94 37.352 536.58 38.256C536.084 38.592 535.616 38.84 535.176 39C534.736 39.16 534.224 39.148 533.64 38.964L533.136 38.82C531.912 38.484 531.3 37.664 531.3 36.36V21.6C531.3 20.12 532.028 19.38 533.484 19.38H556.98C558.444 19.38 559.176 20.12 559.176 21.6C559.176 23.056 558.444 23.784 556.98 23.784H535.716V33.756C537.732 32.908 540.312 32.484 543.456 32.484H547.884C551.772 32.484 554.644 33.412 556.5 35.268C558.356 37.116 559.284 39.98 559.284 43.86V48C559.284 51.88 558.356 54.748 556.5 56.604C554.644 58.468 551.772 59.4 547.884 59.4H541.656Z" fill="#AA33FF" stroke="#FF57FF" stroke-width="1.8"/>
</g>
<defs>
<clipPath id="clip0_1_2">
<rect width="561" height="80" fill="white"/>
</clipPath>
</defs>
</svg>