<?xml version="1.0" encoding="UTF-8"?>
<svg width="600" height="200" viewBox="0 0 800 200" xmlns="http://www.w3.org/2000/svg">
  <defs>
    <style>
      .logo-text-path {
        fill: #aa33ff;
        stroke: #ff57ff;
        stroke-width: 1.5;
        paint-order: stroke fill;
      }
    </style>
  </defs>
  
  <!-- Die Logo (scaled and positioned) -->
  <g transform="translate(20, 30) scale(0.2)">
    <g fill="#aa33ff" stroke="#aa33ff" stroke-width="13.824">
      <g stroke-width="0"/>
      <g stroke-linecap="round" stroke-linejoin="round"/>
      <g>
        <style type="text/css">
          .st0{fill:#ff57ff;}
        </style>
        <g>
          <path class="st0" d="M449.528,105.602L288.459,8.989C278.469,2.994,267.232,0,255.993,0c-11.225,0-22.463,2.994-32.452,8.989 L62.471,105.602c-19.012,11.406-30.64,31.95-30.64,54.117v192.562c0,22.168,11.628,42.711,30.64,54.117l161.069,96.613 c9.989,5.988,21.228,8.989,32.452,8.989c11.239,0,22.476-3.001,32.466-8.989l161.069-96.613 c19.013-11.406,30.64-31.95,30.64-54.117V159.719C480.168,137.552,468.541,117.008,449.528,105.602z M250.595,492.733 c-6.028-0.745-11.936-2.712-17.321-5.948L72.206,390.172c-13.306-7.99-21.456-22.37-21.456-37.891V159.719 c0-6.022,1.242-11.862,3.518-17.233l196.328,117.76V492.733z M59.665,133.114c3.37-4.464,7.593-8.318,12.54-11.285l161.069-96.613 c6.996-4.196,14.85-6.291,22.718-6.291c7.882,0,15.737,2.095,22.732,6.291l161.069,96.613c4.942,2.967,9.171,6.821,12.54,11.285 L255.993,250.881L59.665,133.114z M461.249,352.281c0,15.521-8.15,29.901-21.456,37.891l-161.069,96.613 c-5.397,3.236-11.292,5.203-17.32,5.948V260.246l196.328-117.76c2.282,5.37,3.518,11.211,3.518,17.233V352.281z"/>
          <path class="st0" d="M367.96,114.498c-10.809-8.01-28.626-8.204-39.784-0.45c-11.158,7.754-11.44,20.543-0.631,28.546 c10.822,8.002,28.626,8.203,39.784,0.45C378.487,135.282,378.769,122.507,367.96,114.498z"/>
          <path class="st0" d="M183.676,112.289c-10.816-8.003-28.626-8.211-39.784-0.45c-11.158,7.754-11.44,20.536-0.631,28.538 c10.808,8.009,28.626,8.204,39.784,0.456C194.203,133.067,194.484,120.291,183.676,112.289z"/>
          <path class="st0" d="M89.285,248.303c11.158,6.083,20.194,1.961,20.194-9.19c0-11.158-9.036-25.129-20.194-31.21 c-11.158-6.083-20.201-1.967-20.201,9.19C69.084,228.244,78.127,242.221,89.285,248.303z"/>
          <path class="st0" d="M202.057,309.771c11.164,6.082,20.207,1.967,20.207-9.184c0-11.157-9.043-25.135-20.207-31.217 c-11.144-6.076-20.194-1.961-20.194,9.198C181.863,289.719,190.913,303.689,202.057,309.771z"/>
          <path class="st0" d="M89.285,361.082c11.158,6.083,20.194,1.967,20.194-9.19c0-11.158-9.036-25.129-20.194-31.21 c-11.158-6.083-20.201-1.968-20.201,9.19C69.084,341.029,78.127,355,89.285,361.082z"/>
          <path class="st0" d="M202.057,422.55c11.164,6.082,20.207,1.967,20.207-9.191c0-11.151-9.043-25.128-20.207-31.21 c-11.144-6.076-20.194-1.961-20.194,9.19C181.863,402.497,190.913,416.468,202.057,422.55z"/>
          <path class="st0" d="M145.671,335.43c11.158,6.076,20.201,1.96,20.201-9.198c0-11.151-9.043-25.128-20.201-31.204 c-11.15-6.082-20.2-1.967-20.2,9.184C125.471,315.37,134.521,329.341,145.671,335.43z"/>
          <path class="st0" d="M414.538,204.559c-11.158,6.082-20.194,20.052-20.194,31.21c0,11.158,9.036,15.273,20.194,9.191 c11.157-6.083,20.207-20.053,20.207-31.211C434.745,202.591,425.695,198.476,414.538,204.559z"/>
          <path class="st0" d="M414.538,270.33c-11.158,6.09-20.194,20.053-20.194,31.211c0,11.158,9.036,15.273,20.194,9.198 c11.157-6.083,20.207-20.06,20.207-31.211C434.745,268.37,425.695,264.248,414.538,270.33z"/>
          <path class="st0" d="M316.36,302.642c11.158-6.082,20.208-20.053,20.208-31.211c0-11.151-9.05-15.266-20.208-9.19 c-11.158,6.082-20.194,20.059-20.194,31.21C296.166,304.609,305.203,308.724,316.36,302.642z"/>
          <path class="st0" d="M414.538,336.108c-11.158,6.082-20.194,20.053-20.194,31.204c0,11.158,9.036,15.273,20.194,9.198 c11.157-6.083,20.207-20.06,20.207-31.218C434.745,334.141,425.695,330.026,414.538,336.108z"/>
          <path class="st0" d="M316.36,393.79c-11.158,6.082-20.194,20.053-20.194,31.211c0,11.15,9.037,15.266,20.194,9.184 c11.158-6.076,20.208-20.053,20.208-31.204C336.568,391.823,327.518,387.708,316.36,393.79z"/>
          <path class="st0" d="M317.569,328.018c-11.158,6.076-20.194,20.053-20.194,31.204c0,11.158,9.036,15.273,20.194,9.191 c11.158-6.082,20.208-20.053,20.208-31.21C337.776,326.052,328.727,321.936,317.569,328.018z"/>
        </g>
      </g>
    </g>
  </g>
  
  <!-- Text as SVG Paths (Actual Jura font from tool) -->
  <g class="logo-text-path" transform="translate(140, 30) scale(1.6)">
    <path d="M1.85 48.25Q0 48.25 0 46.40L0 16.75Q0 14.90 1.85 14.90Q3.07 14.90 3.88 16.10L15.90 34.27L15.10 34.40L27.18 16.10Q27.93 14.90 29.40 14.90Q30.93 14.90 30.93 16.75L30.93 46.40Q30.93 48.25 29.10 48.25Q27.25 48.25 27.25 46.40L27.25 20.42L28.38 20.80L17.52 36.98Q16.73 38.15 15.30 38.15Q14.25 38.15 13.45 36.98L2.60 20.80L3.68 21.13L3.68 46.40Q3.68 48.25 1.85 48.25ZM42.83 48.25Q40.98 48.25 40.98 46.40L40.98 16.75Q40.98 14.90 42.83 14.90L61.03 14.90Q62.88 14.90 62.88 16.75Q62.88 18.57 61.03 18.57L44.65 18.57L44.65 29.57L55.13 29.57Q56.98 29.57 56.98 31.40Q56.98 33.25 55.13 33.25L44.65 33.25L44.65 44.58L61.03 44.58Q62.88 44.58 62.88 46.40Q62.88 48.25 61.03 48.25L42.83 48.25ZM80.38 48.25Q79.48 48.25 79 47.79Q78.53 47.33 78.53 46.42L78.53 18.60L68.53 18.60Q67.63 18.60 67.15 18.14Q66.68 17.67 66.68 16.77Q66.68 15.88 67.15 15.40Q67.63 14.92 68.53 14.92L92.23 14.92Q93.13 14.92 93.59 15.40Q94.05 15.88 94.05 16.77Q94.05 17.67 93.59 18.14Q93.13 18.60 92.23 18.60L82.20 18.60L82.20 46.42Q82.20 47.27 81.73 47.76Q81.25 48.25 80.38 48.25ZM94.45 48.08Q92.70 47.38 93.40 45.65L105.48 16.35Q106.10 14.90 107.53 14.90L107.65 14.90Q109.08 14.98 109.60 16.35L121.80 45.65Q122.50 47.38 120.80 48.08Q119.08 48.75 118.40 47.08L115.48 40.08L99.65 40.08L96.83 47.08Q96.13 48.77 94.45 48.08M101.10 36.40L113.98 36.40L107.45 20.72L101.10 36.40ZM138.22 48.25Q132.60 48.25 129.94 45.59Q127.28 42.92 127.28 37.30L127.28 25.85Q127.28 20.17 129.93 17.52Q132.58 14.88 138.18 14.90L144.23 14.90Q148.88 14.90 151.28 16.84Q153.68 18.77 154.03 22.95Q154.15 23.88 153.68 24.36Q153.20 24.85 152.28 24.85Q150.60 24.85 150.35 23Q150.13 20.45 148.73 19.51Q147.33 18.57 144.23 18.57L138.18 18.57Q135.45 18.57 133.88 19.24Q132.30 19.90 131.63 21.49Q130.95 23.07 130.95 25.85L130.95 37.30Q130.95 40.05 131.63 41.64Q132.30 43.23 133.89 43.90Q135.47 44.58 138.22 44.58L144.23 44.58Q146.63 44.58 147.99 44.02Q149.35 43.48 149.91 42.11Q150.48 40.75 150.48 38.30L150.48 35.70L146.05 35.65Q144.23 35.65 144.23 33.80Q144.23 31.97 146.05 31.97L152.33 32.02Q154.15 32.02 154.15 33.85L154.15 38.30Q154.15 43.50 151.76 45.88Q149.38 48.25 144.23 48.25L138.22 48.25ZM160.80 48.08Q159.05 47.38 159.75 45.65L171.83 16.35Q172.45 14.90 173.88 14.90L174 14.90Q175.43 14.98 175.95 16.35L188.15 45.65Q188.85 47.38 187.15 48.08Q185.43 48.75 184.75 47.08L181.83 40.08L166 40.08L163.18 47.08Q162.48 48.77 160.80 48.08M167.45 36.40L180.33 36.40L173.80 20.72L167.45 36.40ZM197 48.25Q195.15 48.25 195.15 46.40L195.15 16.75Q195.15 14.90 197 14.90Q198.22 14.90 199.03 16.10L211.05 34.27L210.25 34.40L222.32 16.10Q223.07 14.90 224.55 14.90Q226.07 14.90 226.07 16.75L226.07 46.40Q226.07 48.25 224.25 48.25Q222.40 48.25 222.40 46.40L222.40 20.42L223.53 20.80L212.68 36.98Q211.88 38.15 210.45 38.15Q209.40 38.15 208.60 36.98L197.75 20.80L198.82 21.13L198.82 46.40Q198.82 48.25 197 48.25ZM237.97 48.25Q236.13 48.25 236.13 46.40L236.13 16.75Q236.13 14.90 237.97 14.90L256.18 14.90Q258.02 14.90 258.02 16.75Q258.02 18.57 256.18 18.57L239.80 18.57L239.80 29.57L250.28 29.57Q252.13 29.57 252.13 31.40Q252.13 33.25 250.28 33.25L239.80 33.25L239.80 44.58L256.18 44.58Q258.02 44.58 258.02 46.40Q258.02 48.25 256.18 48.25L237.97 48.25ZM298.90 48.25L279.97 48.25Q278.10 48.25 278.10 46.40Q278.10 43.23 279.06 40.96Q280.02 38.70 281.63 37.09Q283.22 35.48 285.19 34.25Q287.15 33.02 289.13 31.88Q291.80 30.35 293.61 29.21Q295.43 28.07 296.34 26.86Q297.25 25.65 297.25 23.90Q297.25 20.82 296.11 19.70Q294.97 18.57 291.93 18.57L286.57 18.57Q284.05 18.57 282.86 19.32Q281.68 20.07 281.40 22.05Q281.25 22.92 280.81 23.39Q280.38 23.85 279.47 23.85Q278.55 23.85 278.07 23.35Q277.60 22.85 277.68 21.92Q278.13 18.38 280.31 16.64Q282.50 14.90 286.57 14.90L291.93 14.90Q296.52 14.90 298.72 17.10Q300.93 19.30 300.93 23.90Q300.93 26.75 299.54 28.69Q298.15 30.63 295.86 32.10Q293.57 33.58 290.93 35.08Q288.52 36.45 286.63 37.70Q284.72 38.95 283.49 40.55Q282.25 42.15 281.90 44.58L298.90 44.58Q300.75 44.58 300.75 46.40Q300.75 48.25 298.90 48.25ZM318.82 48.25Q313.20 48.25 310.54 45.59Q307.88 42.92 307.88 37.30L307.88 25.80Q307.88 20.15 310.54 17.51Q313.20 14.88 318.82 14.92L321.82 14.92Q327.45 14.92 330.10 17.56Q332.75 20.20 332.75 25.85L332.75 37.30Q332.75 42.92 330.10 45.59Q327.45 48.25 321.82 48.25L318.82 48.25M318.82 44.58L321.82 44.58Q324.55 44.58 326.14 43.89Q327.72 43.20 328.40 41.61Q329.07 40.02 329.07 37.30L329.07 25.85Q329.07 23.13 328.40 21.54Q327.72 19.95 326.14 19.27Q324.55 18.60 321.82 18.60L318.82 18.60Q316.10 18.55 314.51 19.21Q312.93 19.88 312.24 21.46Q311.55 23.05 311.55 25.80L311.55 37.30Q311.55 40.02 312.22 41.61Q312.90 43.20 314.49 43.89Q316.07 44.58 318.82 44.58M319.77 33.88Q317.95 33.88 317.95 32.05L317.95 30.90Q317.95 29.13 319.77 29.13L320.88 29.13Q322.63 29.13 322.63 30.90L322.63 32.05Q322.63 33.88 320.88 33.88L319.77 33.88ZM360.50 48.25L341.57 48.25Q339.70 48.25 339.70 46.40Q339.70 43.23 340.66 40.96Q341.63 38.70 343.23 37.09Q344.82 35.48 346.79 34.25Q348.75 33.02 350.73 31.88Q353.40 30.35 355.21 29.21Q357.03 28.07 357.94 26.86Q358.85 25.65 358.85 23.90Q358.85 20.82 357.71 19.70Q356.57 18.57 353.53 18.57L348.18 18.57Q345.65 18.57 344.46 19.32Q343.28 20.07 343 22.05Q342.85 22.92 342.41 23.39Q341.98 23.85 341.07 23.85Q340.15 23.85 339.68 23.35Q339.20 22.85 339.28 21.92Q339.73 18.38 341.91 16.64Q344.10 14.90 348.18 14.90L353.53 14.90Q358.13 14.90 360.32 17.10Q362.53 19.30 362.53 23.90Q362.53 26.75 361.14 28.69Q359.75 30.63 357.46 32.10Q355.18 33.58 352.53 35.08Q350.13 36.45 348.23 37.70Q346.32 38.95 345.09 40.55Q343.85 42.15 343.50 44.58L360.50 44.58Q362.35 44.58 362.35 46.40Q362.35 48.25 360.50 48.25ZM378.88 48.25Q374.55 48.25 372.23 46.41Q369.90 44.58 369.48 40.73Q369.40 39.83 369.88 39.31Q370.35 38.80 371.28 38.80Q372.98 38.80 373.15 40.60Q373.48 42.83 374.76 43.70Q376.05 44.58 378.88 44.58L384.07 44.58Q387.43 44.58 388.66 43.31Q389.90 42.05 389.90 38.75L389.90 35.30Q389.90 31.97 388.65 30.74Q387.40 29.50 384.07 29.50L380.38 29.50Q376.35 29.50 374.65 30.63Q374.03 31.05 373.48 31.25Q372.93 31.45 372.20 31.22L371.78 31.10Q370.25 30.68 370.25 29.05L370.25 16.75Q370.25 14.90 372.07 14.90L391.65 14.90Q393.48 14.90 393.48 16.75Q393.48 18.57 391.65 18.57L373.93 18.57L373.93 26.88Q376.45 25.82 380.38 25.82L384.07 25.82Q388.93 25.82 391.25 28.14Q393.57 30.45 393.57 35.30L393.57 38.75Q393.57 43.60 391.25 45.92Q388.93 48.25 384.07 48.25L378.88 48.25Z"/>
  </g>
</svg>