<svg width="800" height="800" viewBox="0 0 800 800" fill="none" xmlns="http://www.w3.org/2000/svg">
<path d="M583.333 400C666.176 400 733.333 467.157 733.333 550C733.333 632.843 666.176 700 583.333 700C511.97 700 452.246 650.167 437.066 583.4H362.933C347.753 650.167 288.033 700 216.667 700C133.823 700 66.6665 632.843 66.6665 550C66.6665 467.157 133.823 400 216.667 400C293.88 400 357.467 458.34 365.753 533.343H434.246C442.533 458.34 506.12 400 583.333 400ZM216.667 450C161.437 450 116.667 494.77 116.667 550C116.667 605.23 161.437 650 216.667 650C271.897 650 316.666 605.23 316.666 550C316.666 494.77 271.897 450 216.667 450ZM583.333 450C528.103 450 483.333 494.77 483.333 550C483.333 605.23 528.103 650 583.333 650C638.563 650 683.333 605.23 683.333 550C683.333 494.77 638.563 450 583.333 450ZM400 308.333C512.976 308.333 617.67 319.65 714.06 342.333C720.443 343.919 725.945 347.956 729.372 353.569C732.799 359.183 733.876 365.921 732.37 372.323C730.863 378.726 726.894 384.276 721.323 387.772C715.751 391.268 709.027 392.428 702.606 391C610.106 369.237 509.243 358.333 400 358.333C290.756 358.333 189.893 369.237 97.3932 391C90.9728 392.428 84.2483 391.268 78.6771 387.772C73.1059 384.276 69.1368 378.726 67.6301 372.323C66.1233 365.921 67.2003 359.183 70.6276 353.569C74.055 347.956 79.5565 343.919 85.9398 342.333C182.333 319.647 287.023 308.333 400 308.333ZM523.343 108.333C539.994 108.333 556.33 112.869 570.598 121.452C584.865 130.036 596.526 142.343 604.327 157.053L607.106 162.77L656.18 273.18C658.763 278.972 659.049 285.53 656.979 291.524C654.909 297.519 650.638 302.503 645.031 305.467C639.424 308.431 632.9 309.153 626.781 307.486C620.661 305.82 615.404 301.891 612.073 296.493L610.487 293.487L561.42 183.077C558.453 176.402 553.785 170.625 547.882 166.324C541.979 162.023 535.049 159.349 527.786 158.57L523.343 158.333H276.656C269.354 158.334 262.18 160.253 255.852 163.9C249.525 167.546 244.268 172.791 240.607 179.11L238.583 183.077L189.513 293.487C186.943 299.282 182.268 303.885 176.432 306.364C170.597 308.842 164.038 309.011 158.083 306.836C152.128 304.661 147.222 300.305 144.357 294.65C141.492 288.994 140.883 282.461 142.653 276.373L143.82 273.18L192.893 162.77C199.655 147.555 210.434 134.469 224.071 124.917C237.709 115.366 253.69 109.708 270.3 108.553L276.653 108.333H523.343Z" fill="url(#paint0_linear_2028_14)"/>
<defs>
<linearGradient id="paint0_linear_2028_14" x1="212.5" y1="700" x2="604" y2="158.5" gradientUnits="userSpaceOnUse">
<stop stop-color="white"/>
<stop offset="1" stop-color="white"/>
</linearGradient>
</defs>
</svg>
