<?xml version="1.0" encoding="UTF-8"?>
<svg xmlns="http://www.w3.org/2000/svg" xmlns:xlink="http://www.w3.org/1999/xlink" viewBox="0 0 235.44 93.36">
  <defs>
    <style>
      .cls-1 {
        fill: url(#linear-gradient);
        stroke-width: 0px;
      }

      .cls-2 {
        mix-blend-mode: screen;
      }

      .cls-3 {
        isolation: isolate;
      }
    </style>
    <linearGradient id="linear-gradient" x1="122.48" y1="17.73" x2="107.88" y2="100.56" gradientUnits="userSpaceOnUse">
      <stop offset="0" stop-color="#f9ed38"/>
      <stop offset="1" stop-color="#e87635"/>
    </linearGradient>
  </defs>
  <g class="cls-3">
    <g id="Layer_2" data-name="Layer 2">
      <g id="Layer_3" data-name="Layer 3">
        <g>
          <path class="cls-1" d="m223.29,35.06s-.64,1.4-1.67,4.16h-44.04c-4.35-2.66-9.87-4.44-16.88-4.52-7.27-.09-12.88,1.72-17.2,4.52h-50.93c-4.36-2.94-9.94-4.8-17.02-4.52-6.34.24-11.37,1.98-15.36,4.52H13.69l-1.47-4.16,76.42-9.82h52.04l82.6,9.82ZM13.83,39.62l2.32,6.58h36.52c1.83-2.42,4.1-4.7,6.9-6.58H13.83Zm2.6,7.36l2.07,5.88h30.2c.89-1.94,2.01-3.95,3.4-5.88H16.44Zm2.63,7.45l1.58,4.47h25.8c.4-1.38.92-2.9,1.57-4.47h-28.95Zm2.51,7.1l1.57,4.46h21.83s.15-1.76.78-4.46h-24.18Zm71.57-21.91c2.65,1.88,4.84,4.16,6.64,6.58h36.4c1.76-2.43,3.96-4.7,6.71-6.58h-49.75Zm7.21,7.36c1.37,1.93,2.5,3.93,3.43,5.88h28.61c.85-1.95,1.91-3.95,3.24-5.88h-35.28Zm4.15,7.45c.68,1.57,1.24,3.09,1.68,4.47h24.12c.37-1.38.84-2.89,1.45-4.47h-27.25Zm2.47,7.1c.72,2.69.96,4.46.96,4.46h21.1s.1-1.77.65-4.46h-22.71Zm85.64,0c.66,2.69.83,4.46.83,4.46h20.38c.35-1.54.71-3.03,1.06-4.46h-22.27Zm-2.38-7.1c.68,1.57,1.22,3.09,1.65,4.47h23.67c.4-1.57.8-3.06,1.19-4.47h-26.51Zm-4.26-7.45c1.43,1.93,2.6,3.93,3.53,5.88h27.68c.62-2.15,1.21-4.11,1.77-5.88h-32.98Zm-7.76-7.36c2.9,1.88,5.25,4.16,7.16,6.58h33.83c.86-2.67,1.63-4.87,2.26-6.58h-43.25Zm-48.88,35.03h-22.09v-4.42h22.09v4.42Zm4.02,2.1h-31.19v4.42h31.19v-4.42Zm-88.22-6.97h-22.09v4.42h22.09v-4.42Zm4.02,6.52h-31.19v4.42h31.19v-4.42Zm165.34-6.07h-22.09v4.42h22.09v-4.42Zm4.02,6.52h-31.19v4.42h31.19v-4.42Zm-79.13-59.77l-26.07-4.85-26.07,4.85v4.46h52.15v-4.46Z"/>
        </g>
      </g>
    </g>
  </g>
</svg>