<svg width="248" height="315" viewBox="0 0 2487 3152" fill="none" xmlns="http://www.w3.org/2000/svg">
<path id="p1" d="M1875.38 781.813C1875.65 832.565 1868.43 881.982 1854.81 930.865C1850.54 946.625 1841.19 956.241 1827.03 964.255C1778.42 991.768 1730.61 1020.88 1682.53 1049.47C1641.13 1073.77 1599.73 1098.08 1558.33 1121.85C1509.18 1150.17 1460.03 1178.75 1410.35 1206.8C1351.59 1239.92 1288.02 1257.82 1220.71 1256.75C1144.32 1255.68 1073 1234.04 1006.76 1195.31C922.621 1146.43 837.949 1098.62 753.812 1050C719.622 1030.23 685.7 1010.2 651.244 990.432C636.286 981.885 621.061 973.604 605.569 965.858C593.55 959.981 586.071 951.967 581.53 939.146C564.702 889.729 553.484 838.709 554.018 786.621C554.552 735.868 562.299 685.917 573.517 636.5C589.276 568.118 617.055 505.612 654.983 446.579C701.726 373.656 760.489 312.485 829.402 261.466C896.178 212.049 971.234 177.59 1051.9 155.687C1118.94 137.256 1187.32 131.646 1256.5 134.852C1320.34 137.79 1381.5 153.817 1441.87 175.454C1497.96 195.487 1549.78 223.802 1598.66 257.192C1646.2 289.513 1686.8 330.115 1724.2 373.923C1782.43 442.038 1824.1 519.502 1850.81 604.713C1858.82 630.089 1863.36 656.534 1866.83 682.979C1870.84 715.3 1872.44 748.69 1875.38 781.813Z" fill="url(#paint1_radial_2016_30)"/>
<path id="p2" d="M1223 1792.23C1180.53 1796.77 1139.66 1789.02 1099.6 1778.87C1072.08 1771.66 1045.11 1759.64 1019.47 1747.08C967.647 1721.44 916.897 1694.2 865.881 1667.22C853.594 1660.81 842.108 1652.26 829.822 1645.58C774.264 1614.59 718.707 1583.61 663.416 1552.89C600.914 1518.16 538.145 1483.44 475.642 1448.45C442.789 1430.28 411.003 1410.25 377.081 1394.22C357.049 1384.6 334.345 1376.86 312.442 1374.99C270.24 1371.52 232.311 1359.5 200.793 1331.18C176.487 1309.54 164.2 1280.96 156.454 1249.71C150.043 1224.07 150.845 1199.22 156.988 1174.12C162.597 1150.61 172.747 1128.97 188.506 1110.27C220.024 1072.61 261.426 1056.58 309.504 1052.58C351.439 1048.84 388.033 1062.46 423.824 1081.69C458.014 1100.12 493.004 1117.49 527.193 1135.92C559.246 1153.28 590.497 1171.71 622.282 1189.61C657.006 1209.11 691.462 1228.34 726.185 1247.84C772.394 1273.75 818.603 1299.93 865.079 1325.57C897.399 1343.47 930.253 1361.1 962.839 1379C980.201 1388.34 997.295 1397.96 1014.66 1407.58C1057.39 1431.88 1103.34 1447.38 1151.95 1452.72C1189.08 1456.73 1227 1459.4 1264.4 1457.53C1293.25 1456.19 1322.63 1449.25 1350.14 1440.17C1384.06 1428.95 1417.72 1415.32 1449.23 1398.76C1490.1 1377.66 1528.83 1352.28 1568.63 1329.04C1594.27 1314.09 1620.45 1299.66 1646.36 1284.97C1687.76 1261.46 1729.16 1237.96 1770.83 1214.45C1806.62 1194.15 1842.41 1173.85 1878.2 1153.81C1921.74 1129.24 1965.28 1104.66 2009.35 1080.62C2035.53 1066.2 2063.57 1057.12 2093.49 1052.04C2135.96 1044.83 2172.82 1057.38 2207.27 1079.29C2244.4 1103.06 2269.24 1138.32 2276.19 1181.33C2284.47 1232.08 2274.32 1280.43 2237.99 1320.5C2208.88 1352.82 2173.08 1369.11 2129.55 1372.05C2100.7 1373.92 2072.12 1379.53 2045.68 1395.02C2002.14 1420.4 1957.27 1443.1 1913.19 1467.41C1884.88 1482.9 1856.83 1498.93 1829.06 1514.96C1780.71 1542.74 1732.36 1570.79 1683.75 1598.57C1639.15 1623.94 1594.54 1648.79 1549.93 1674.16C1514.41 1694.2 1479.95 1715.83 1443.63 1734.26C1410.5 1751.09 1376.85 1767.92 1341.59 1778.6C1302.86 1790.09 1263.06 1797.3 1223 1792.23Z" fill="url(#paint0_linear_2016_30)"/>
<path id="p3" d="M1223 2355.23C1180.53 2359.77 1139.66 2352.02 1099.6 2341.87C1072.08 2334.66 1045.11 2322.64 1019.47 2310.08C967.647 2284.44 916.897 2257.2 865.881 2230.22C853.594 2223.81 842.108 2215.26 829.822 2208.58C774.264 2177.59 718.707 2146.61 663.416 2115.89C600.914 2081.16 538.145 2046.44 475.642 2011.45C442.789 1993.28 411.003 1973.25 377.081 1957.22C357.049 1947.6 334.345 1939.86 312.442 1937.99C270.24 1934.52 232.311 1922.5 200.793 1894.18C176.487 1872.54 164.2 1843.96 156.454 1812.71C150.043 1787.07 150.845 1762.22 156.988 1737.12C162.597 1713.61 172.747 1691.97 188.506 1673.27C220.024 1635.61 261.426 1619.58 309.504 1615.58C351.439 1611.84 388.033 1625.46 423.824 1644.69C458.014 1663.12 493.004 1680.49 527.193 1698.92C559.246 1716.28 590.497 1734.71 622.282 1752.61C657.006 1772.11 691.462 1791.34 726.185 1810.84C772.394 1836.75 818.603 1862.93 865.079 1888.57C897.399 1906.47 930.253 1924.1 962.839 1942C980.201 1951.34 997.295 1960.96 1014.66 1970.58C1057.39 1994.88 1103.34 2010.38 1151.95 2015.72C1189.08 2019.73 1227 2022.4 1264.4 2020.53C1293.25 2019.19 1322.63 2012.25 1350.14 2003.17C1384.06 1991.95 1417.72 1978.32 1449.23 1961.76C1490.1 1940.66 1528.83 1915.28 1568.63 1892.04C1594.27 1877.09 1620.45 1862.66 1646.36 1847.97C1687.76 1824.46 1729.16 1800.96 1770.83 1777.45C1806.62 1757.15 1842.41 1736.85 1878.2 1716.81C1921.74 1692.24 1965.28 1667.66 2009.35 1643.62C2035.53 1629.2 2063.57 1620.12 2093.49 1615.04C2135.96 1607.83 2172.82 1620.38 2207.27 1642.29C2244.4 1666.06 2269.24 1701.32 2276.19 1744.33C2284.47 1795.08 2274.32 1843.43 2237.99 1883.5C2208.88 1915.82 2173.08 1932.11 2129.55 1935.05C2100.7 1936.92 2072.12 1942.53 2045.68 1958.02C2002.14 1983.4 1957.27 2006.1 1913.19 2030.41C1884.88 2045.9 1856.83 2061.93 1829.06 2077.96C1780.71 2105.74 1732.36 2133.79 1683.75 2161.57C1639.15 2186.94 1594.54 2211.79 1549.93 2237.16C1514.41 2257.2 1479.95 2278.83 1443.63 2297.26C1410.5 2314.09 1376.85 2330.92 1341.59 2341.6C1302.86 2352.82 1263.06 2360.3 1223 2355.23Z" fill="url(#paint2_linear_2016_30)"/>
<path id="p4" d="M1224 2904.23C1181.53 2908.77 1140.66 2901.02 1100.6 2890.87C1073.08 2883.66 1046.11 2871.64 1020.47 2859.08C968.647 2833.44 917.897 2806.2 866.881 2779.22C854.594 2772.81 843.108 2764.26 830.822 2757.58C775.264 2726.59 719.707 2695.61 664.416 2664.89C601.914 2630.16 539.145 2595.44 476.642 2560.45C443.789 2542.28 412.003 2522.25 378.081 2506.22C358.049 2496.6 335.345 2488.86 313.442 2486.99C271.24 2483.52 233.311 2471.5 201.793 2443.18C177.487 2421.54 165.2 2392.96 157.454 2361.71C151.043 2336.07 151.845 2311.22 157.988 2286.12C163.597 2262.61 173.747 2240.97 189.506 2222.27C221.024 2184.61 262.426 2168.58 310.504 2164.58C352.439 2160.84 389.033 2174.46 424.824 2193.69C459.014 2212.12 494.004 2229.49 528.193 2247.92C560.246 2265.28 591.497 2283.71 623.282 2301.61C658.006 2321.11 692.462 2340.34 727.185 2359.84C773.394 2385.75 819.603 2411.93 866.079 2437.57C898.399 2455.47 931.253 2473.1 963.839 2491C981.201 2500.34 998.295 2509.96 1015.66 2519.58C1058.39 2543.88 1104.34 2559.38 1152.95 2564.72C1190.08 2568.73 1228 2571.4 1265.4 2569.53C1294.25 2568.19 1323.63 2561.25 1351.14 2552.17C1385.06 2540.95 1418.72 2527.32 1450.23 2510.76C1491.1 2489.66 1529.83 2464.28 1569.63 2441.04C1595.27 2426.09 1621.45 2411.66 1647.36 2396.97C1688.76 2373.46 1730.16 2349.96 1771.83 2326.45C1807.62 2306.15 1843.41 2285.85 1879.2 2265.81C1922.74 2241.24 1966.28 2216.66 2010.35 2192.62C2036.53 2178.2 2064.57 2169.12 2094.49 2164.04C2136.96 2156.83 2173.82 2169.38 2208.27 2191.29C2245.4 2215.06 2270.24 2250.32 2277.19 2293.33C2285.47 2344.08 2275.32 2392.43 2238.99 2432.5C2209.88 2464.82 2174.08 2481.11 2130.55 2484.05C2101.7 2485.92 2073.12 2491.53 2046.68 2507.02C2003.14 2532.4 1958.27 2555.1 1914.19 2579.41C1885.88 2594.9 1857.83 2610.93 1830.06 2626.96C1781.71 2654.74 1733.36 2682.79 1684.75 2710.57C1640.15 2735.94 1595.54 2760.79 1550.93 2786.16C1515.41 2806.2 1480.95 2827.83 1444.63 2846.26C1411.5 2863.09 1377.85 2879.92 1342.59 2890.6C1303.86 2901.82 1264.06 2909.3 1224 2904.23Z" fill="url(#paint3_linear_2016_30)"/>
<defs>
<linearGradient id="paint0_linear_2016_30" x1="2282" y1="1114.5" x2="140.5" y2="1336" gradientUnits="userSpaceOnUse">
<stop stop-color="#FFC03D"/>
<stop offset="1" stop-color="#FE7457"/>
</linearGradient>
<radialGradient id="paint1_radial_2016_30" cx="0" cy="0" r="1" gradientUnits="userSpaceOnUse" gradientTransform="translate(1560.5 216.5) rotate(108.387) scale(1096.26 1290.16)">
<stop stop-color="#91F6FF"/>
<stop offset="1" stop-color="#2EC8FE"/>
</radialGradient>
<linearGradient id="paint2_linear_2016_30" x1="2222" y1="1705.5" x2="161.5" y2="1801" gradientUnits="userSpaceOnUse">
<stop stop-color="#FEA403"/>
<stop offset="1" stop-color="#CD3DD0"/>
</linearGradient>
<linearGradient id="paint3_linear_2016_30" x1="2202" y1="1942" x2="191.5" y2="2325" gradientUnits="userSpaceOnUse">
<stop stop-color="#25DBFA"/>
<stop offset="1" stop-color="#A240FE"/>
</linearGradient>
</defs>
</svg>
